<svg width="209" height="36" viewBox="0 0 209 36" fill="none" xmlns="http://www.w3.org/2000/svg">
<path d="M9.62148 16.05L15.8219 5.31203C13.9046 4.88382 11.9151 4.8965 10.0034 5.34913C8.09172 5.80176 6.30772 6.68253 4.78592 7.92503L9.54348 16.18L9.62148 16.05ZM25.402 14.1C24.2061 10.304 21.3074 7.26203 17.6027 5.85803L12.8452 14.1H25.402ZM25.74 15.4H16.0039L16.3809 16.05L22.5683 26.775C24.7791 24.3883 26.005 21.2534 26 18C26 17.103 25.909 16.245 25.74 15.4ZM8.50358 18L3.43404 9.22502C2.04122 10.7336 1.0272 12.5519 0.475709 14.5297C-0.0757811 16.5076 -0.148921 18.5883 0.262329 20.6H9.99844L8.50358 18ZM0.600299 21.9C1.79619 25.696 4.69493 28.738 8.39959 30.142L13.1572 21.9H0.600299ZM15.25 21.9L10.1804 30.688C12.0977 31.1162 14.0872 31.1035 15.9989 30.6509C17.9106 30.1982 19.6946 29.3175 21.2164 28.075L16.4589 19.82L15.25 21.9Z" fill="white"/>
<path d="M40.592 14.504C40.992 13.88 41.544 13.376 42.248 12.992C42.952 12.608 43.776 12.416 44.72 12.416C45.824 12.416 46.824 12.696 47.72 13.256C48.616 13.816 49.32 14.616 49.832 15.656C50.36 16.696 50.624 17.904 50.624 19.28C50.624 20.656 50.36 21.872 49.832 22.928C49.32 23.968 48.616 24.776 47.72 25.352C46.824 25.912 45.824 26.192 44.72 26.192C43.792 26.192 42.968 26 42.248 25.616C41.544 25.232 40.992 24.736 40.592 24.128V32.384H36.488V12.608H40.592V14.504ZM46.448 19.28C46.448 18.256 46.16 17.456 45.584 16.88C45.024 16.288 44.328 15.992 43.496 15.992C42.68 15.992 41.984 16.288 41.408 16.88C40.848 17.472 40.568 18.28 40.568 19.304C40.568 20.328 40.848 21.136 41.408 21.728C41.984 22.32 42.68 22.616 43.496 22.616C44.312 22.616 45.008 22.32 45.584 21.728C46.16 21.12 46.448 20.304 46.448 19.28ZM61.0091 12.464C62.5451 12.464 63.7771 12.976 64.7051 14C65.6331 15.008 66.0971 16.4 66.0971 18.176V26H62.0171V18.728C62.0171 17.832 61.7851 17.136 61.3211 16.64C60.8571 16.144 60.2331 15.896 59.4491 15.896C58.6651 15.896 58.0411 16.144 57.5771 16.64C57.1131 17.136 56.8811 17.832 56.8811 18.728V26H52.7771V8.24H56.8811V14.408C57.2971 13.816 57.8651 13.344 58.5851 12.992C59.3051 12.64 60.1131 12.464 61.0091 12.464ZM75.0449 26.192C73.7329 26.192 72.5489 25.912 71.4929 25.352C70.4529 24.792 69.6289 23.992 69.0209 22.952C68.4289 21.912 68.1329 20.696 68.1329 19.304C68.1329 17.928 68.4369 16.72 69.0449 15.68C69.6529 14.624 70.4849 13.816 71.5409 13.256C72.5969 12.696 73.7809 12.416 75.0929 12.416C76.4049 12.416 77.5889 12.696 78.6449 13.256C79.7009 13.816 80.5329 14.624 81.1409 15.68C81.7489 16.72 82.0529 17.928 82.0529 19.304C82.0529 20.68 81.7409 21.896 81.1169 22.952C80.5089 23.992 79.6689 24.792 78.5969 25.352C77.5409 25.912 76.3569 26.192 75.0449 26.192ZM75.0449 22.64C75.8289 22.64 76.4929 22.352 77.0369 21.776C77.5969 21.2 77.8769 20.376 77.8769 19.304C77.8769 18.232 77.6049 17.408 77.0609 16.832C76.5329 16.256 75.8769 15.968 75.0929 15.968C74.2929 15.968 73.6289 16.256 73.1009 16.832C72.5729 17.392 72.3089 18.216 72.3089 19.304C72.3089 20.376 72.5649 21.2 73.0769 21.776C73.6049 22.352 74.2609 22.64 75.0449 22.64ZM91.6942 22.52V26H89.6062C88.1182 26 86.9582 25.64 86.1262 24.92C85.2942 24.184 84.8782 22.992 84.8782 21.344V16.016H83.2462V12.608H84.8782V9.344H88.9822V12.608H91.6702V16.016H88.9822V21.392C88.9822 21.792 89.0782 22.08 89.2702 22.256C89.4622 22.432 89.7822 22.52 90.2302 22.52H91.6942ZM100.076 26.192C98.7642 26.192 97.5802 25.912 96.5242 25.352C95.4842 24.792 94.6602 23.992 94.0522 22.952C93.4602 21.912 93.1642 20.696 93.1642 19.304C93.1642 17.928 93.4682 16.72 94.0762 15.68C94.6842 14.624 95.5162 13.816 96.5722 13.256C97.6282 12.696 98.8122 12.416 100.124 12.416C101.436 12.416 102.62 12.696 103.676 13.256C104.732 13.816 105.564 14.624 106.172 15.68C106.78 16.72 107.084 17.928 107.084 19.304C107.084 20.68 106.772 21.896 106.148 22.952C105.54 23.992 104.7 24.792 103.628 25.352C102.572 25.912 101.388 26.192 100.076 26.192ZM100.076 22.64C100.86 22.64 101.524 22.352 102.068 21.776C102.628 21.2 102.908 20.376 102.908 19.304C102.908 18.232 102.636 17.408 102.092 16.832C101.564 16.256 100.908 15.968 100.124 15.968C99.3242 15.968 98.6602 16.256 98.1322 16.832C97.6042 17.392 97.3402 18.216 97.3402 19.304C97.3402 20.376 97.5962 21.2 98.1082 21.776C98.6362 22.352 99.2922 22.64 100.076 22.64ZM114.349 12.416C115.293 12.416 116.117 12.608 116.821 12.992C117.541 13.376 118.093 13.88 118.477 14.504V12.608H122.581V25.976C122.581 27.208 122.333 28.32 121.837 29.312C121.357 30.32 120.613 31.12 119.605 31.712C118.613 32.304 117.373 32.6 115.885 32.6C113.901 32.6 112.293 32.128 111.061 31.184C109.829 30.256 109.125 28.992 108.949 27.392H113.005C113.133 27.904 113.437 28.304 113.917 28.592C114.397 28.896 114.989 29.048 115.693 29.048C116.541 29.048 117.213 28.8 117.709 28.304C118.221 27.824 118.477 27.048 118.477 25.976V24.08C118.077 24.704 117.525 25.216 116.821 25.616C116.117 26 115.293 26.192 114.349 26.192C113.245 26.192 112.245 25.912 111.349 25.352C110.453 24.776 109.741 23.968 109.213 22.928C108.701 21.872 108.445 20.656 108.445 19.28C108.445 17.904 108.701 16.696 109.213 15.656C109.741 14.616 110.453 13.816 111.349 13.256C112.245 12.696 113.245 12.416 114.349 12.416ZM118.477 19.304C118.477 18.28 118.189 17.472 117.613 16.88C117.053 16.288 116.365 15.992 115.549 15.992C114.733 15.992 114.037 16.288 113.461 16.88C112.901 17.456 112.621 18.256 112.621 19.28C112.621 20.304 112.901 21.12 113.461 21.728C114.037 22.32 114.733 22.616 115.549 22.616C116.365 22.616 117.053 22.32 117.613 21.728C118.189 21.136 118.477 20.328 118.477 19.304ZM129.655 14.84C130.135 14.104 130.735 13.528 131.455 13.112C132.175 12.68 132.975 12.464 133.855 12.464V16.808H132.727C131.703 16.808 130.935 17.032 130.423 17.48C129.911 17.912 129.655 18.68 129.655 19.784V26H125.551V12.608H129.655V14.84ZM135 19.28C135 17.904 135.256 16.696 135.768 15.656C136.296 14.616 137.008 13.816 137.904 13.256C138.8 12.696 139.8 12.416 140.904 12.416C141.848 12.416 142.672 12.608 143.376 12.992C144.096 13.376 144.648 13.88 145.032 14.504V12.608H149.136V26H145.032V24.104C144.632 24.728 144.072 25.232 143.352 25.616C142.648 26 141.824 26.192 140.88 26.192C139.792 26.192 138.8 25.912 137.904 25.352C137.008 24.776 136.296 23.968 135.768 22.928C135.256 21.872 135 20.656 135 19.28ZM145.032 19.304C145.032 18.28 144.744 17.472 144.168 16.88C143.608 16.288 142.92 15.992 142.104 15.992C141.288 15.992 140.592 16.288 140.016 16.88C139.456 17.456 139.176 18.256 139.176 19.28C139.176 20.304 139.456 21.12 140.016 21.728C140.592 22.32 141.288 22.616 142.104 22.616C142.92 22.616 143.608 22.32 144.168 21.728C144.744 21.136 145.032 20.328 145.032 19.304ZM156.209 14.504C156.609 13.88 157.161 13.376 157.865 12.992C158.569 12.608 159.393 12.416 160.337 12.416C161.441 12.416 162.441 12.696 163.337 13.256C164.233 13.816 164.937 14.616 165.449 15.656C165.977 16.696 166.241 17.904 166.241 19.28C166.241 20.656 165.977 21.872 165.449 22.928C164.937 23.968 164.233 24.776 163.337 25.352C162.441 25.912 161.441 26.192 160.337 26.192C159.409 26.192 158.585 26 157.865 25.616C157.161 25.232 156.609 24.736 156.209 24.128V32.384H152.105V12.608H156.209V14.504ZM162.065 19.28C162.065 18.256 161.777 17.456 161.201 16.88C160.641 16.288 159.945 15.992 159.113 15.992C158.297 15.992 157.601 16.288 157.025 16.88C156.465 17.472 156.185 18.28 156.185 19.304C156.185 20.328 156.465 21.136 157.025 21.728C157.601 22.32 158.297 22.616 159.113 22.616C159.929 22.616 160.625 22.32 161.201 21.728C161.777 21.12 162.065 20.304 162.065 19.28ZM176.626 12.464C178.162 12.464 179.394 12.976 180.322 14C181.25 15.008 181.714 16.4 181.714 18.176V26H177.634V18.728C177.634 17.832 177.402 17.136 176.938 16.64C176.474 16.144 175.85 15.896 175.066 15.896C174.282 15.896 173.658 16.144 173.194 16.64C172.73 17.136 172.498 17.832 172.498 18.728V26H168.394V8.24H172.498V14.408C172.914 13.816 173.482 13.344 174.202 12.992C174.922 12.64 175.73 12.464 176.626 12.464ZM197.19 19.088C197.19 19.472 197.166 19.872 197.118 20.288H187.83C187.894 21.12 188.158 21.76 188.622 22.208C189.102 22.64 189.686 22.856 190.374 22.856C191.398 22.856 192.11 22.424 192.51 21.56H196.878C196.654 22.44 196.246 23.232 195.654 23.936C195.078 24.64 194.35 25.192 193.47 25.592C192.59 25.992 191.606 26.192 190.518 26.192C189.206 26.192 188.038 25.912 187.014 25.352C185.99 24.792 185.19 23.992 184.614 22.952C184.038 21.912 183.75 20.696 183.75 19.304C183.75 17.912 184.03 16.696 184.59 15.656C185.166 14.616 185.966 13.816 186.99 13.256C188.014 12.696 189.19 12.416 190.518 12.416C191.814 12.416 192.966 12.688 193.974 13.232C194.982 13.776 195.766 14.552 196.326 15.56C196.902 16.568 197.19 17.744 197.19 19.088ZM192.99 18.008C192.99 17.304 192.75 16.744 192.27 16.328C191.79 15.912 191.19 15.704 190.47 15.704C189.782 15.704 189.198 15.904 188.718 16.304C188.254 16.704 187.966 17.272 187.854 18.008H192.99ZM203.459 14.84C203.939 14.104 204.539 13.528 205.259 13.112C205.979 12.68 206.779 12.464 207.659 12.464V16.808H206.531C205.507 16.808 204.739 17.032 204.227 17.48C203.715 17.912 203.459 18.68 203.459 19.784V26H199.355V12.608H203.459V14.84Z" fill="white"/>
</svg>
